<svg width="150" height="26" viewBox="0 0 150 26" fill="none" xmlns="http://www.w3.org/2000/svg">
<path d="M19.192 13.336C19.464 13.336 19.6 13.704 19.6 14.44C19.6 14.84 19.432 15.328 19.096 15.904C18.76 16.464 18.32 16.984 17.776 17.464C17.248 17.928 16.656 18.312 16 18.616C15.344 18.92 14.704 19.072 14.08 19.072C13.136 19.072 12.48 18.84 12.112 18.376C11.76 17.896 11.584 17.2 11.584 16.288C11.584 15.36 11.944 13.776 12.664 11.536C10.456 11.44 8.848 11.392 7.84 11.392H7.504C7.216 13.168 7.072 15.032 7.072 16.984C7.072 17.848 6.744 18.44 6.088 18.76C5.784 18.904 5.488 19.04 5.2 19.168C4.928 19.296 4.632 19.36 4.312 19.36C3.512 19.36 3.112 18.64 3.112 17.2C3.112 15.76 3.44 13.912 4.096 11.656C3.392 11.736 2.768 11.816 2.224 11.896C1.696 11.976 1.28 12.016 0.976 12.016C0.672 12.016 0.52 11.936 0.52 11.776C0.52 11.296 0.912 10.808 1.696 10.312C2.496 9.816 3.576 9.44 4.936 9.184C6.44 5.36 8.28 2.808 10.456 1.528C11.256 1.048 12.104 0.808 13 0.808C14.6 0.823999 15.752 1.256 16.456 2.104C17.176 2.952 17.536 4.08 17.536 5.488C17.552 6.88 17.128 8.696 16.264 10.936C15.944 11.8 15.648 12.584 15.376 13.288C15.104 13.992 14.968 14.56 14.968 14.992C14.968 15.424 15 15.752 15.064 15.976C15.128 16.2 15.28 16.312 15.52 16.312C15.952 16.312 16.968 15.48 18.568 13.816C18.856 13.496 19.064 13.336 19.192 13.336ZM14.08 6.184C14.08 4.792 13.56 4.096 12.52 4.096C11.464 4.096 10.552 4.544 9.784 5.44C9.032 6.32 8.448 7.504 8.032 8.992L13.48 9.064C13.88 7.784 14.08 6.824 14.08 6.184ZM27.9355 13.336C28.2235 13.336 28.3675 13.584 28.3675 14.08C28.3675 14.56 28.2395 15.08 27.9835 15.64C27.7435 16.2 27.3675 16.744 26.8555 17.272C26.3595 17.784 25.7195 18.224 24.9355 18.592C24.1515 18.96 23.2235 19.144 22.1515 19.144C21.0955 19.144 20.1675 18.832 19.3675 18.208C18.5675 17.568 18.1675 16.656 18.1675 15.472C18.1675 14.272 18.3515 13.192 18.7195 12.232C19.1035 11.256 19.5995 10.416 20.2075 9.712C20.8315 9.008 21.5355 8.464 22.3195 8.08C23.1035 7.68 23.8475 7.48 24.5515 7.48C25.7835 7.48 26.3995 7.968 26.3995 8.944C26.3995 9.504 26.2795 9.952 26.0395 10.288C25.8155 10.624 25.5835 10.792 25.3435 10.792C25.0235 10.792 24.7435 10.68 24.5035 10.456C24.2635 10.232 23.9995 10.12 23.7115 10.12C23.4235 10.104 23.1435 10.24 22.8715 10.528C22.6155 10.816 22.3995 11.184 22.2235 11.632C21.8715 12.528 21.6955 13.576 21.6955 14.776C21.7115 15.352 21.9755 15.784 22.4875 16.072C22.8395 16.264 23.2555 16.368 23.7355 16.384C24.2155 16.384 24.6715 16.224 25.1035 15.904C25.5515 15.584 25.9595 15.24 26.3275 14.872C26.6955 14.488 27.0155 14.136 27.2875 13.816C27.5755 13.496 27.7915 13.336 27.9355 13.336ZM41.9091 13.336C42.1971 13.336 42.3411 13.704 42.3411 14.44C42.3411 14.84 42.1731 15.328 41.8371 15.904C41.5011 16.464 41.0611 16.984 40.5171 17.464C39.9891 17.928 39.3971 18.312 38.7411 18.616C38.0851 18.92 37.4451 19.072 36.8211 19.072C35.9731 19.072 35.4051 18.328 35.1171 16.84C34.7011 17.528 34.1571 18.096 33.4851 18.544C32.8131 18.976 31.9091 19.192 30.7731 19.192C29.6531 19.192 28.7491 18.84 28.0611 18.136C27.3731 17.432 27.0371 16.576 27.0531 15.568C27.0531 12.848 27.9571 10.704 29.7651 9.136C30.5331 8.48 31.2451 8.048 31.9011 7.84C32.5731 7.632 33.2771 7.528 34.0131 7.528C34.7491 7.528 35.3491 7.656 35.8131 7.912C36.0371 7.448 36.2931 7.216 36.5811 7.216C37.1411 7.216 37.6691 7.464 38.1651 7.96C38.6771 8.44 38.9331 8.896 38.9331 9.328C38.7091 9.856 38.3811 10.488 37.9491 11.224C37.8211 11.96 37.7571 12.992 37.7571 14.32C37.7571 15.648 37.9251 16.312 38.2611 16.312C38.6771 16.312 39.6851 15.48 41.2851 13.816C41.5731 13.496 41.7811 13.336 41.9091 13.336ZM30.5811 14.776C30.5811 16.008 31.0371 16.624 31.9491 16.624C32.9251 16.608 33.7331 16.088 34.3731 15.064C34.5971 14.712 34.7811 14.28 34.9251 13.768C34.9251 11.976 35.0851 10.44 35.4051 9.16C34.1091 9.416 32.9811 10.04 32.0211 11.032C31.0611 12.024 30.5811 13.272 30.5811 14.776ZM55.8779 13.336C56.1659 13.336 56.3099 13.704 56.3099 14.44C56.3099 14.84 56.1419 15.328 55.8059 15.904C55.4699 16.464 55.0299 16.984 54.4859 17.464C53.9579 17.928 53.3659 18.312 52.7099 18.616C52.0539 18.92 51.4139 19.072 50.7899 19.072C49.9099 19.072 49.3339 18.352 49.0619 16.912C48.1019 18.432 46.6779 19.192 44.7899 19.192C43.6379 19.192 42.7179 18.84 42.0299 18.136C41.3419 17.432 41.0059 16.576 41.0219 15.568C41.0219 12.848 41.9259 10.704 43.7339 9.136C44.9819 8.064 46.2779 7.528 47.6219 7.528C48.2299 7.528 48.7099 7.576 49.0619 7.672L49.6139 7.816C50.2699 4.728 51.0299 2.664 51.8939 1.624C52.1819 1.272 52.4699 1.096 52.7579 1.096C53.2219 1.096 53.6539 1.416 54.0539 2.056C54.4059 2.584 54.5819 3.04 54.5819 3.424C54.5819 3.808 54.5259 4.184 54.4139 4.552C54.3019 4.92 54.1579 5.264 53.9819 5.584C53.8219 5.888 53.6379 6.192 53.4299 6.496C53.2219 6.784 53.0139 7.08 52.8059 7.384C52.3419 9.112 51.9979 11.048 51.7739 13.192C51.7099 13.8 51.6779 14.288 51.6779 14.656C51.6779 15.76 51.8619 16.312 52.2299 16.312C52.6459 16.312 53.6539 15.48 55.2539 13.816C55.5419 13.496 55.7499 13.336 55.8779 13.336ZM44.5499 14.776C44.5499 16.008 45.0059 16.624 45.9179 16.624C46.4619 16.624 47.0059 16.416 47.5499 16C48.1099 15.584 48.5419 14.888 48.8459 13.912C48.8779 12.472 49.0459 10.888 49.3499 9.16C48.0699 9.416 46.9499 10.04 45.9899 11.032C45.0299 12.024 44.5499 13.272 44.5499 14.776ZM60.7026 16.384C61.9506 16.384 63.1586 15.888 64.3266 14.896C64.7586 14.528 65.1106 14.192 65.3826 13.888C65.6546 13.568 65.8626 13.408 66.0066 13.408C66.2306 13.408 66.3426 13.632 66.3426 14.08C66.3426 14.528 66.2226 15.032 65.9826 15.592C65.7426 16.136 65.3426 16.672 64.7826 17.2C63.4066 18.496 61.5186 19.144 59.1186 19.144C57.2146 19.144 55.9186 18.456 55.2306 17.08C54.9906 16.6 54.8706 15.912 54.8706 15.016C54.8706 14.12 55.0466 13.192 55.3986 12.232C55.7506 11.256 56.2146 10.416 56.7906 9.712C57.3826 9.008 58.0626 8.464 58.8306 8.08C59.5986 7.68 60.4146 7.48 61.2786 7.48C62.1586 7.48 62.8306 7.696 63.2946 8.128C63.7746 8.56 64.0146 9.12 64.0146 9.808C64.0146 10.496 63.8386 11.064 63.4866 11.512C63.1506 11.944 62.7106 12.312 62.1666 12.616C61.6226 12.904 61.0146 13.168 60.3426 13.408C59.6866 13.632 59.0386 13.888 58.3986 14.176V14.776C58.4146 15.352 58.6546 15.76 59.1186 16C59.5826 16.24 60.1106 16.368 60.7026 16.384ZM60.2946 9.616C59.4626 9.616 58.8866 10.584 58.5666 12.52C58.9026 12.296 59.2146 12.096 59.5026 11.92C59.8066 11.744 60.0706 11.576 60.2946 11.416C60.7746 11.064 61.0226 10.664 61.0386 10.216C61.0386 9.816 60.7906 9.616 60.2946 9.616ZM78.2939 11.704C78.2939 11.176 77.9899 10.912 77.3819 10.912C76.9659 10.912 76.5019 11.32 75.9899 12.136C75.4779 12.936 75.1099 13.8 74.8859 14.728V14.776C74.8859 15.32 74.9659 15.88 75.1259 16.456C75.3019 17.032 75.3899 17.432 75.3899 17.656C75.3899 18.2 74.7099 18.736 73.3499 19.264C73.1419 19.344 72.9579 19.384 72.7979 19.384C72.3979 19.384 72.1179 19.176 71.9579 18.76C71.8139 18.344 71.7419 17.784 71.7419 17.08C71.7419 16.36 71.7579 15.688 71.7899 15.064C71.8379 14.424 71.8779 13.84 71.9099 13.312C71.9579 12.768 71.9979 12.296 72.0299 11.896C72.0779 11.48 72.1019 11.144 72.1019 10.888C72.1019 10.344 71.8539 10.072 71.3579 10.072C70.8619 10.072 70.2859 10.656 69.6299 11.824C68.9739 12.976 68.6459 13.896 68.6459 14.584C68.6459 15.256 68.7259 15.88 68.8859 16.456C69.0619 17.032 69.1499 17.432 69.1499 17.656C69.1499 18.2 68.4699 18.736 67.1099 19.264C66.9019 19.344 66.7179 19.384 66.5579 19.384C66.1579 19.384 65.8779 19.176 65.7179 18.76C65.5739 18.344 65.5019 17.704 65.5019 16.84C65.5019 14.568 65.5899 12.928 65.7659 11.92C66.0059 10.432 66.5499 9.024 67.3979 7.696C67.6859 7.248 67.9979 7.024 68.3339 7.024C68.8619 7.024 69.3499 7.456 69.7979 8.32C69.9259 8.544 70.0219 8.752 70.0859 8.944C70.8539 7.984 71.7579 7.504 72.7979 7.504C73.4859 7.504 74.1019 7.736 74.6459 8.2C75.1899 8.648 75.4619 9.216 75.4619 9.904V10.168C76.4379 8.952 77.6299 8.344 79.0379 8.344C79.9019 8.344 80.5579 8.568 81.0059 9.016C81.4539 9.464 81.6779 10.016 81.6779 10.672C81.6779 11.328 81.6299 11.92 81.5339 12.448C81.4379 12.976 81.3259 13.472 81.1979 13.936C81.0859 14.4 80.9819 14.816 80.8859 15.184C80.7899 15.536 80.7419 15.816 80.7419 16.024C80.7419 16.216 80.8059 16.312 80.9339 16.312C81.1739 16.312 81.4699 16.16 81.8219 15.856C82.1739 15.552 82.5259 15.224 82.8779 14.872C83.2299 14.504 83.5499 14.168 83.8379 13.864C84.1419 13.56 84.3499 13.408 84.4619 13.408C84.6859 13.408 84.7979 13.68 84.7979 14.224C84.7979 15.344 84.2299 16.432 83.0939 17.488C81.9739 18.544 80.7739 19.072 79.4939 19.072C78.3419 19.072 77.7659 18.024 77.7659 15.928C77.7659 15.4 77.8539 14.672 78.0299 13.744C78.2059 12.816 78.2939 12.136 78.2939 11.704ZM90.0432 17.248C89.2432 18.352 88.1712 18.904 86.8272 18.904C85.7392 18.904 84.8672 18.68 84.2112 18.232C83.5712 17.768 83.2512 17.04 83.2512 16.048C83.2512 15.632 83.3072 15.248 83.4192 14.896C83.5472 14.544 83.7472 14.112 84.0192 13.6L84.7152 7.912C85.2112 7.528 85.8832 7.336 86.7312 7.336C87.4512 7.336 87.8592 7.816 87.9552 8.776C87.9872 9.064 88.0032 9.408 88.0032 9.808C88.0032 10.192 87.9392 10.6 87.8112 11.032C87.1712 13.24 86.8592 14.72 86.8752 15.472C86.8752 16.048 87.2112 16.336 87.8832 16.336C88.5552 16.336 89.0512 16.12 89.3712 15.688C89.6912 15.256 89.9632 14.72 90.1872 14.08C90.6032 12.304 90.9872 10.84 91.3392 9.688C91.7072 8.536 91.9392 7.848 92.0352 7.624C92.1952 7.24 92.4992 7.04 92.9472 7.024C93.3952 7.04 93.8192 7.36 94.2192 7.984C94.6192 8.592 94.8192 9.064 94.8192 9.4C94.7872 10.52 94.0912 13.344 92.7312 17.872C93.7712 17.056 94.8032 16.056 95.8272 14.872C96.1792 14.456 96.4752 14.112 96.7152 13.84C96.9552 13.552 97.1472 13.408 97.2912 13.408C97.5152 13.408 97.6272 13.664 97.6272 14.176C97.6272 15.184 97.0592 16.36 95.9232 17.704C94.8032 19.048 93.4272 20.096 91.7952 20.848C91.6032 21.488 91.3952 22.096 91.1712 22.672C90.9472 23.248 90.6592 23.752 90.3072 24.184C89.5392 25.112 88.3712 25.576 86.8032 25.576C85.7472 25.576 84.8432 25.272 84.0912 24.664C83.3552 24.056 82.9872 23.296 82.9872 22.384C82.9872 21.872 83.1552 21.464 83.4912 21.16C83.8432 20.856 84.3152 20.6 84.9072 20.392C85.5152 20.2 86.2192 20.024 87.0192 19.864C87.8192 19.72 88.6752 19.536 89.5872 19.312C89.8112 18.352 89.9632 17.664 90.0432 17.248ZM86.7792 23.728C87.5312 23.728 88.2112 23.072 88.8192 21.76C88.2432 21.872 87.7312 21.952 87.2832 22C86.8352 22.064 86.4512 22.12 86.1312 22.168C85.4912 22.264 85.1792 22.432 85.1952 22.672C85.1952 22.976 85.3712 23.232 85.7232 23.44C86.0912 23.648 86.4432 23.744 86.7792 23.728ZM113.144 8.992C114.84 8.992 116.408 9.008 117.848 9.04C118.6 6 119.336 3.888 120.056 2.704C120.536 2.016 121.016 1.52 121.496 1.216C121.688 1.088 121.88 1.024 122.072 1.024C122.28 1.024 122.384 1.336 122.384 1.96C122.384 2.584 122.328 3.24 122.216 3.928C122.12 4.616 121.992 5.408 121.832 6.304C121.304 9.248 120.904 11.6 120.632 13.36C120.376 15.12 120.248 16.816 120.248 18.448C120.248 18.896 119.928 19.12 119.288 19.12C118.28 19.12 117.592 18.928 117.224 18.544C116.856 18.144 116.672 17.432 116.672 16.408C116.672 15.368 116.88 13.736 117.296 11.512C115.536 11.432 114.424 11.392 113.96 11.392H112.976C112.8 11.392 112.624 11.4 112.448 11.416C111.728 14.168 111.368 16.344 111.368 17.944C111.368 18.888 110.448 19.36 108.608 19.36C108.208 19.36 107.968 19.16 107.888 18.76C107.824 18.344 107.792 17.68 107.792 16.768C107.792 15.84 108.08 14.184 108.656 11.8C107.68 11.944 106.968 12.016 106.52 12.016C106.312 12.016 106.208 11.936 106.208 11.776C106.208 11.424 106.464 11.024 106.976 10.576C107.504 10.128 108.272 9.768 109.28 9.496C109.872 7.448 110.464 5.768 111.056 4.456C109.328 4.488 108.056 4.824 107.24 5.464C106.984 5.656 106.776 5.832 106.616 5.992C106.456 6.136 106.312 6.208 106.184 6.208C106.072 6.208 105.96 6.112 105.848 5.92C105.736 5.728 105.68 5.472 105.68 5.152C105.68 3.984 106.664 3.096 108.632 2.488C110.2 2.008 112.024 1.76 114.104 1.744H114.152C114.264 1.744 114.416 1.808 114.608 1.936C114.816 2.064 114.92 2.272 114.92 2.56C114.92 2.848 114.864 3.176 114.752 3.544C114.656 3.896 114.52 4.16 114.344 4.336C114.248 5.088 113.848 6.64 113.144 8.992ZM130.684 8.872C130.684 7.8 131.516 7.264 133.18 7.264C133.596 7.264 133.852 7.4 133.948 7.672C134.06 7.944 134.116 8.36 134.116 8.92C134.116 9.704 133.94 10.92 133.588 12.568C133.236 14.216 133.068 15.328 133.084 15.904C133.084 16.176 133.172 16.312 133.348 16.312C133.588 16.312 133.884 16.16 134.236 15.856C134.588 15.552 134.94 15.224 135.292 14.872C135.644 14.504 135.964 14.168 136.252 13.864C136.556 13.56 136.764 13.408 136.876 13.408C137.1 13.408 137.212 13.68 137.212 14.224C137.212 15.344 136.66 16.424 135.556 17.464C133.7 18.552 132.524 19.096 132.028 19.096C131.98 19.096 131.94 19.088 131.908 19.072C131.3 19.072 130.868 18.872 130.612 18.472C130.372 18.072 130.22 17.568 130.156 16.96C129.836 17.552 129.396 18.064 128.836 18.496C128.276 18.912 127.636 19.12 126.916 19.12C125.652 19.12 124.676 18.88 123.988 18.4C123.316 17.92 122.98 17.208 122.98 16.264C122.98 15.848 123.036 15.464 123.148 15.112C123.276 14.76 123.476 14.328 123.748 13.816L124.444 7.912C124.94 7.528 125.652 7.336 126.58 7.336C127.316 7.336 127.732 7.816 127.828 8.776C127.908 9.56 127.868 10.264 127.708 10.888C127.564 11.496 127.364 12.272 127.108 13.216C126.852 14.144 126.724 14.968 126.724 15.688C126.724 16.264 127.084 16.552 127.804 16.552C128.588 16.552 129.268 15.864 129.844 14.488C130.292 13.432 130.596 12.256 130.756 10.96C130.74 10.832 130.724 10.672 130.708 10.48C130.708 10.272 130.7 10.072 130.684 9.88C130.684 9.688 130.684 9.496 130.684 9.304V8.872ZM138.033 7.72C136.849 7.208 136.257 6.712 136.257 6.232C136.257 5.976 136.361 5.856 136.569 5.872C136.857 5.872 137.185 5.944 137.553 6.088C137.921 6.216 138.297 6.32 138.681 6.4C139.993 3.92 141.481 2.296 143.145 1.528C143.705 1.272 144.265 1.136 144.825 1.12C145.929 1.12 146.769 1.392 147.345 1.936C147.937 2.464 148.233 3.112 148.233 3.88C148.233 5.256 147.489 6.32 146.001 7.072C144.785 7.68 143.129 8.056 141.033 8.2C140.281 10.056 139.905 12.048 139.905 14.176C139.905 15.76 140.273 16.68 141.009 16.936C141.521 17.112 141.905 17.12 142.161 16.96C142.417 16.784 142.617 16.56 142.761 16.288C142.905 16 142.977 15.584 142.977 15.04C142.993 14.496 142.841 14.04 142.521 13.672C142.217 13.288 141.921 12.936 141.633 12.616C141.777 12.088 141.985 11.648 142.257 11.296C142.769 10.608 143.209 10.264 143.577 10.264C143.945 10.264 144.241 10.392 144.465 10.648C144.705 10.904 144.897 11.224 145.041 11.608C145.185 11.992 145.297 12.408 145.377 12.856C145.473 13.304 145.577 13.72 145.689 14.104C145.801 14.488 145.937 14.808 146.097 15.064C146.273 15.32 146.497 15.448 146.769 15.448C147.057 15.448 147.313 15.344 147.537 15.136C147.761 14.912 147.961 14.672 148.137 14.416C148.313 14.16 148.473 13.928 148.617 13.72C148.761 13.496 148.905 13.384 149.049 13.384C149.209 13.384 149.361 13.512 149.505 13.768C149.665 14.024 149.745 14.264 149.745 14.488C149.745 15 149.489 15.608 148.977 16.312C148.481 17.016 147.841 17.368 147.057 17.368C146.273 17.352 145.665 17.184 145.233 16.864C144.961 17.536 144.497 18.096 143.841 18.544C143.185 18.992 142.249 19.216 141.033 19.216C139.833 19.216 138.801 18.904 137.937 18.28C136.897 17.528 136.377 16.36 136.377 14.776C136.377 12.52 136.929 10.168 138.033 7.72ZM145.593 4.312C145.577 3.752 145.369 3.472 144.969 3.472C144.585 3.472 144.081 3.768 143.457 4.36C142.833 4.952 142.233 5.776 141.657 6.832C143.401 6.528 144.593 5.992 145.233 5.224C145.457 4.936 145.577 4.632 145.593 4.312Z" fill="white"/>
</svg>
