<svg width="461" height="252" viewBox="0 0 461 252" fill="none" xmlns="http://www.w3.org/2000/svg">
<path d="M460.4 230.534C460.404 234.755 459.154 238.883 456.81 242.394C454.466 245.906 451.133 248.643 447.233 250.259C443.333 251.875 439.041 252.297 434.901 251.473C430.76 250.648 426.957 248.614 423.974 245.627L230 51.6535L36.027 245.627C31.9459 249.192 26.6608 251.071 21.2449 250.881C15.829 250.691 10.6883 248.448 6.86657 244.606C3.04481 240.764 0.82849 235.611 0.667615 230.194C0.506739 224.777 2.41337 219.502 6.00038 215.44L215.067 6.37348C217.048 4.38999 219.401 2.81646 221.991 1.74288C224.581 0.669294 227.357 0.116699 230.16 0.116699C232.964 0.116699 235.74 0.669294 238.33 1.74288C240.92 2.81646 243.272 4.38999 245.254 6.37348L454 215.44C456.01 217.41 457.61 219.757 458.708 222.347C459.806 224.938 460.382 227.72 460.4 230.534Z" fill="white"/>
</svg>
